<svg xmlns="http://www.w3.org/2000/svg" xmlns:xlink="http://www.w3.org/1999/xlink" width="139" height="63" viewBox="0 0 139 63"><defs><style>.a,.c{fill:#004bb1;}.a{stroke:#707070;}.b{clip-path:url(#a);}</style><clipPath id="a"><rect class="a" width="139" height="63" transform="translate(-13.16 14)"/></clipPath></defs><g class="b" transform="translate(13.16 -14)"><g transform="translate(-13.162 19)"><path class="c" d="M6.59,0H0L16.784,29.124v22h5.671v-22l.008-.01L8.337,3.058Z"/><path class="c" d="M32.8,0,20.416,21.46l3.111,5.826L39.394,0Z"/><path class="c" d="M88.688,21.921V0H83.016V51.121h5.671v-22l.016-.016v-7.2Z"/><path class="c" d="M118.642,0h-7.664L90.712,20.41l4.038,3.407Z"/><path class="c" d="M94.731,23.835l.018-.018L90.712,20.41l-.021.018v7.266l20.9,23.427h7.819Z"/><path class="c" d="M312.534,144.8a4.689,4.689,0,0,0,.38,2.05,2.77,2.77,0,0,0,1.032,1.173,4.019,4.019,0,0,0,1.513.524,12.266,12.266,0,0,0,1.833.128h.17v2.43h-9.185l-.765-4.692h-.283a10.473,10.473,0,0,1-1.935,2.658,8.7,8.7,0,0,1-4.737,2.388,16.823,16.823,0,0,1-2.713.212,11.846,11.846,0,0,1-4.069-.649,7.234,7.234,0,0,1-3-2.035,9.287,9.287,0,0,1-1.851-3.535,18.143,18.143,0,0,1-.636-5.116V126.455a4.69,4.69,0,0,0-.38-2.05,2.948,2.948,0,0,0-1.032-1.2,3.928,3.928,0,0,0-1.513-.566,11.261,11.261,0,0,0-1.833-.141h-.17v-2.43h10.374V140.05a17.215,17.215,0,0,0,.3,3.365,6.787,6.787,0,0,0,.99,2.487,4.334,4.334,0,0,0,1.867,1.54,7.19,7.19,0,0,0,2.925.524,7.363,7.363,0,0,0,3.294-.678,6.111,6.111,0,0,0,2.26-1.909,8.379,8.379,0,0,0,1.309-2.954,15.972,15.972,0,0,0,.424-3.815V126.673a5.313,5.313,0,0,0-.382-2.189,3,3,0,0,0-1.016-1.273,3.666,3.666,0,0,0-1.5-.581,11.489,11.489,0,0,0-1.854-.141h-.168v-2.43h10.345Z" transform="translate(-240.895 -100.685)"/><path class="c" d="M363.145,149.293a13.171,13.171,0,0,0,1.945-.136,4.223,4.223,0,0,0,1.616-.558,2.925,2.925,0,0,0,1.1-1.252,5.033,5.033,0,0,0,.406-2.189V125.57a5.033,5.033,0,0,0-.406-2.189,3.16,3.16,0,0,0-1.1-1.283,4.137,4.137,0,0,0-1.616-.6,11.842,11.842,0,0,0-1.945-.152h-.181v-2.595h11.047v26.108a5.541,5.541,0,0,0,.406,2.323,3.244,3.244,0,0,0,1.087,1.343,3.9,3.9,0,0,0,1.616.621,12.441,12.441,0,0,0,1.961.149h.814v2.6H362.331v-2.6Zm4.189-40.564a5.221,5.221,0,0,1,.262-1.812,3.069,3.069,0,0,1,.754-1.178,2.729,2.729,0,0,1,1.115-.634,5.077,5.077,0,0,1,1.39-.181,4.923,4.923,0,0,1,1.356.181,2.6,2.6,0,0,1,1.1.634,3.333,3.333,0,0,1,.754,1.178,5.836,5.836,0,0,1,0,3.621,3.289,3.289,0,0,1-.754,1.178,2.715,2.715,0,0,1-1.1.649,4.553,4.553,0,0,1-1.356.2,4.7,4.7,0,0,1-1.39-.2,2.854,2.854,0,0,1-1.115-.649,3.029,3.029,0,0,1-.754-1.178,5.2,5.2,0,0,1-.257-1.809Zm-82.053.126a5.222,5.222,0,0,1,.262-1.812,3.037,3.037,0,0,1,.754-1.176,2.7,2.7,0,0,1,1.118-.636,5.044,5.044,0,0,1,1.388-.181,4.954,4.954,0,0,1,1.359.181,2.619,2.619,0,0,1,1.1.636,3.3,3.3,0,0,1,.754,1.176,5.886,5.886,0,0,1,0,3.621,3.289,3.289,0,0,1-.754,1.178,2.749,2.749,0,0,1-1.1.649,4.585,4.585,0,0,1-1.359.2,4.666,4.666,0,0,1-1.388-.2,2.846,2.846,0,0,1-1.118-.649,3.029,3.029,0,0,1-.754-1.178,5.2,5.2,0,0,1-.257-1.809Zm18.852,0a5.221,5.221,0,0,1,.262-1.812,3.037,3.037,0,0,1,.754-1.176,2.7,2.7,0,0,1,1.118-.636,5.044,5.044,0,0,1,1.388-.181,4.954,4.954,0,0,1,1.359.181,2.618,2.618,0,0,1,1.1.636,3.3,3.3,0,0,1,.754,1.176,5.886,5.886,0,0,1,0,3.621,3.289,3.289,0,0,1-.754,1.178,2.749,2.749,0,0,1-1.1.649,4.585,4.585,0,0,1-1.359.2,4.666,4.666,0,0,1-1.388-.2,2.846,2.846,0,0,1-1.118-.649,3.03,3.03,0,0,1-.754-1.178,5.2,5.2,0,0,1-.257-1.809Z" transform="translate(-240.895 -100.685)"/></g></g></svg>